<?xml version="1.0" encoding="utf-8"?>
<!-- Generator: Adobe Illustrator 18.0.0, SVG Export Plug-In . SVG Version: 6.00 Build 0)  -->
<!DOCTYPE svg PUBLIC "-//W3C//DTD SVG 1.1//EN" "http://www.w3.org/Graphics/SVG/1.1/DTD/svg11.dtd">
<svg version="1.1" id="Layer_1" xmlns="http://www.w3.org/2000/svg" xmlns:xlink="http://www.w3.org/1999/xlink" x="0px" y="0px"
	 viewBox="400 0 700 700" enable-background="new 400 0 700 700" xml:space="preserve">
<g>
	<path fill="#41434B" d="M400,347.7c0,188.1,150.5,341.5,338.3,347.7V0C550.5,6.1,400,159.5,400,347.7z M651.7,447.1l-132.1-88.4
		v88.4h-32.7V250.8h33v84l123.1-84h48.1l-143.2,93.9l158.7,102.4L651.7,447.1L651.7,447.1z"/>
	<path fill="#6DAFB9" d="M767.8,0.3v695C953,686.3,1100,534,1100,348S952.7,9.3,767.8,0.3z M1012.8,420.6
		c-1.5,5.8-3.8,10.8-7.6,14.3c-3.5,3.5-8.2,6.1-14.3,7.3c-5.8,1.5-13.1,2-22.2,2H853.5c-9,0-16.3-0.6-22.2-2s-10.5-3.8-14.3-7.3
		c-3.5-3.5-6.1-8.2-7.6-14.3c-1.5-5.8-2.3-13.4-2.3-22.8v-5.2l30.6-7.3v31.5h147v-58.9h-124c-9,0-16.3-0.6-22.2-2
		c-5.8-1.5-10.5-3.8-14-7.3c-3.5-3.5-5.8-8.2-7.6-14.3c-1.5-5.8-2.3-13.4-2.3-22.8v-17.2c0-9,0.9-16.6,2.3-22.8
		c1.5-5.8,4.1-10.8,7.6-14.3c3.5-3.5,8.2-6.1,14-7.3c5.8-1.5,13.1-2,22.2-2h105.3c8.2,0,15.2,0.6,21,2c5.8,1.2,10.8,3.5,14.3,6.7
		c3.8,3.2,6.4,7.9,8.2,13.4c1.8,5.5,2.6,12.5,2.6,21v4.1l-28.3,7.9v-28.6H844.2v54.8h124.2c9,0,16.3,0.9,22.5,2.3
		c6.1,1.5,10.8,4.1,14.3,7.6s5.8,8.2,7.3,14.3c1.5,5.8,2,13.4,2,22.2v22.2C1014.8,406.9,1014.3,414.5,1012.8,420.6z"/>
</g>
</svg>
